<svg width="269" height="260" viewBox="0 0 269 260" fill="none" xmlns="http://www.w3.org/2000/svg">
<path d="M142.124 132.556C141.495 131.698 140.97 130.547 140.497 129.187C139.557 126.47 138.843 122.909 138.298 119.351C137.215 112.24 136.821 105.155 136.82 105.144H136.821L138.117 105.076C138.119 105.085 138.285 108.108 138.707 112.189C139.127 116.268 139.801 121.394 140.799 125.535C141.459 128.29 142.287 130.621 143.185 131.83C143.702 132.532 144.165 132.787 144.535 132.78C144.854 132.784 145.317 132.601 145.92 131.977C146.52 131.36 147.211 130.337 147.952 128.858C149.443 125.898 151.153 121.123 153.079 114.042L154.334 114.359C151.41 125.055 149.044 130.551 146.874 132.834C146.144 133.592 145.37 134.034 144.535 134.038C143.531 134.031 142.745 133.402 142.124 132.556Z" fill="#1D1D1B"/>
<path d="M150.855 128.243C150.227 127.384 149.701 126.233 149.228 124.871C148.287 122.153 147.574 118.595 147.03 115.036C145.944 107.925 145.549 100.84 145.549 100.831L146.849 100.763C146.849 100.769 147.016 103.793 147.436 107.873C147.857 111.954 148.532 117.077 149.528 121.219C150.186 123.974 151.017 126.304 151.916 127.514C152.433 128.217 152.895 128.471 153.266 128.465C153.583 128.469 154.048 128.287 154.652 127.662C155.251 127.043 155.94 126.022 156.683 124.544C158.172 121.582 159.882 116.806 161.809 109.725L163.066 110.045C160.141 120.743 157.775 126.237 155.601 128.52C154.873 129.276 154.099 129.72 153.266 129.722C152.262 129.714 151.474 129.088 150.855 128.243Z" fill="#1D1D1B"/>
<path d="M156.71 125.078C156.082 124.218 155.556 123.067 155.084 121.708C154.142 118.99 153.428 115.43 152.885 111.873C151.801 104.76 151.406 97.6749 151.406 97.6655L152.704 97.5978C152.704 97.6053 152.871 100.63 153.291 104.709C153.712 108.788 154.385 113.914 155.383 118.053C156.043 120.81 156.872 123.141 157.771 124.35C158.289 125.052 158.752 125.307 159.121 125.3C159.44 125.304 159.906 125.121 160.509 124.497C161.106 123.88 161.795 122.857 162.538 121.377C164.027 118.418 165.739 113.643 167.666 106.562L168.921 106.879C165.996 117.576 163.63 123.071 161.458 125.354C160.731 126.112 159.954 126.554 159.121 126.558C158.117 126.551 157.329 125.922 156.71 125.078Z" fill="#1D1D1B"/>
<path d="M158.032 108.305L180.32 95.8317L150.604 79.1999L128.316 91.6733L158.032 108.305Z" fill="#E4EEF1"/>
<path d="M135.745 95.8317L135.747 104.149L158.03 116.622L158.032 108.305L135.745 95.8317Z" fill="#ADC5CD"/>
<path d="M158.03 116.622L180.32 104.149V95.8317L158.032 108.305L158.03 116.622Z" fill="#D2DDE0"/>
<path d="M138.606 94.2312L155.796 84.6091L174.975 95.2562L158.032 105.11L138.606 94.2312Z" fill="#FCFCFD"/>
<path d="M132.033 78.9141L134.963 90.8759C134.963 90.8759 136.662 91.916 137.224 90.2853L132.618 77.9887L130.347 76.1794L129.231 77.9887L132.033 78.9141Z" fill="#827E7D"/>
<path d="M138.547 75.1976L141.482 87.1595C141.482 87.1595 143.179 88.1976 143.739 86.5689L139.133 74.2723L136.864 72.4592L135.747 74.2723L138.547 75.1976Z" fill="#827E7D"/>
<path d="M144.237 71.4022L147.172 83.364C147.172 83.364 148.87 84.4041 149.431 82.7734L144.825 70.4769L142.554 68.6675L141.437 70.4769L144.237 71.4022Z" fill="#827E7D"/>
<path d="M155.16 92.8921L161.058 89.6139L157.308 87.5149L151.408 90.7931L155.16 92.8921Z" fill="#ADC5CD"/>
<path d="M150.186 90.2044L151.375 89.5443L150.62 89.1211L149.431 89.7813L150.186 90.2044Z" fill="#ADC5CD"/>
<path d="M152.566 88.9556L153.755 88.2954L152.998 87.8723L151.811 88.5324L152.566 88.9556Z" fill="#ADC5CD"/>
<path d="M154.944 87.7086L156.132 87.0466L155.377 86.6253L154.189 87.2855L154.944 87.7086Z" fill="#ADC5CD"/>
<path d="M147.853 97.0749L153.755 93.7967L150.003 91.6978L144.103 94.976L147.853 97.0749Z" fill="#ADC5CD"/>
<path d="M158.843 102.29L171.007 95.5308L163.272 91.2031L151.11 97.9627L158.843 102.29Z" fill="#ADC5CD"/>
<path d="M142.881 94.3873L144.07 93.7253L143.313 93.304L142.126 93.9622L142.881 94.3873Z" fill="#ADC5CD"/>
<path d="M145.259 93.1385L146.448 92.4783L145.693 92.0551L144.504 92.7172L145.259 93.1385Z" fill="#ADC5CD"/>
<path d="M147.639 91.8915L148.826 91.2313L148.071 90.8082L146.884 91.4683L147.639 91.8915Z" fill="#ADC5CD"/>
<path d="M191.46 184.374L161.746 167.744V109.533L191.46 126.165V184.374Z" fill="#ADC5CD"/>
<path d="M166.701 164.971L186.506 176.055V128.937L166.701 117.854V164.971ZM187.549 177.806L165.658 165.554V116.101L187.549 128.354V177.806Z" fill="#EFF3F5"/>
<path d="M191.46 126.165L213.746 114.373L213.748 172.585L191.46 185.056V126.165Z" fill="#D2DDE0"/>
<path d="M161.746 109.533L184.033 97.7407L213.746 114.373L191.46 126.165L161.746 109.533Z" fill="#E4EEF1"/>
<path d="M186.025 46.8655L185.994 46.8485V46.8372H185.975L148.923 26.0564V26.0489H115.588L120.048 29.2049L147.907 30.3202L178.567 49.7487V109.204C178.567 109.204 178.567 111.284 182.281 111.284C185.992 111.284 185.994 109.204 185.994 109.204V46.9181L186.025 46.8655Z" fill="#A6B2B3"/>
<path d="M115.588 26.0489L100.34 36.1976C100.34 36.1976 102.307 47.4654 119.355 45.7483L120.048 29.2049L115.588 26.0489Z" fill="#E4EEF1"/>
<path d="M172.116 215.952L97.8277 174.351L127.541 157.719L201.83 199.298L172.116 215.952Z" fill="#517E84"/>
<path d="M97.8277 174.351V177.428L172.116 219.029V215.952L97.8277 174.351Z" fill="#92AEB3"/>
<path d="M172.116 215.952L201.83 199.298L201.828 202.376L172.116 219.029V215.952Z" fill="#E4EEF1"/>
<path d="M120.114 186.824L127.541 166.036L149.828 178.509L157.257 207.613L120.114 186.824Z" fill="#ADC5CD"/>
<path d="M127.541 166.036L157.257 149.402L179.542 161.877L149.828 178.509L127.541 166.036Z" fill="#517E84"/>
<path d="M179.542 161.877L186.971 190.981L157.257 207.613L149.828 178.509L179.542 161.877Z" fill="#E4EEF1"/>
<path d="M127.541 166.036L112.685 157.719V170.192L123.827 176.429L127.541 166.036Z" fill="#7FA2A6"/>
<path d="M112.685 170.192L105.257 166.036L105.255 136.931L142.398 157.719V161.877L112.685 170.192Z" fill="#ADC5CD"/>
<path d="M105.255 128.616L68.112 102.712L97.8277 86.0799L134.971 111.982L105.255 128.616Z" fill="#4CBED3"/>
<path d="M134.971 111.982L172.116 132.77L142.398 149.404L105.255 128.616L134.971 111.982Z" fill="#0F98B7"/>
<path d="M172.116 132.77L194.4 170.192L164.685 186.824L142.398 149.404L172.116 132.77Z" fill="#4CBED3"/>
<path d="M105.255 128.616V136.931L142.398 157.719V149.404L105.255 128.616Z" fill="#0F639E"/>
<path d="M142.398 149.404L164.685 186.824L160.526 189.151L142.398 157.719V149.404Z" fill="#0C7CA8"/>
<path d="M68.112 102.712V110.925L105.255 136.931V128.616L68.112 102.712Z" fill="#0C7CA8"/>
<path d="M180.791 161.909C180.791 161.909 185.436 164.575 188.201 164.332C190.966 164.093 192.7 166.369 188.874 167.745C185.05 169.124 183.396 169.683 180.073 168.552L180.425 169.265L176.525 169.278L174.55 164.781L176.878 160.856L180.791 161.909Z" fill="#1D1814"/>
<path d="M179.915 160.463C179.915 160.463 173.247 144.531 171.665 137.818C171.587 137.247 171.365 136.686 170.991 136.186L147.047 120.141C141.922 116.588 135.284 114.988 133.667 116.46L128.386 120.56C128.386 120.56 134.401 126.135 135.596 127.728C135.596 127.728 154.43 138.479 162.023 141.469C162.239 142.475 162.577 143.545 162.83 144.629C163.344 146.829 172.838 163.369 172.838 163.369C173.634 165.182 180.711 162.28 179.915 160.463Z" fill="#22201D"/>
<path d="M173.498 166.641C173.498 166.641 176.765 169.641 179.534 169.826C182.303 170.01 183.642 172.528 179.639 173.301C175.638 174.074 174.025 173.986 170.925 172.361L171.159 173.113L167.306 172.526L166.09 167.785L169.746 164.783L173.498 166.641Z" fill="#1D1814"/>
<path d="M171.581 164.174C171.581 164.174 162.217 150.785 158.936 142.831C158.835 142.592 158.697 142.396 158.528 142.233V142.231C158.477 142.182 158.425 142.135 158.37 142.092L140.092 125.953C138.343 124.943 131.908 114.312 131.908 114.312L119.445 125.43C119.445 125.43 123.27 134.004 126.759 136.233C126.759 136.233 141.237 144.153 150.454 148.494C153.284 155.675 164.025 168.056 164.025 168.056C164.978 169.801 172.538 165.917 171.581 164.174Z" fill="#35322F"/>
<path d="M131.134 106.846C132.815 107.602 129.678 112.292 127.999 111.533L110.951 106.21C108.822 105.249 105.744 102.456 105.744 102.456C106.524 100.827 110.573 99.6271 112.255 100.385L131.134 106.846Z" fill="#32378C"/>
<path d="M98.8707 103.515C98.8707 103.515 93.6577 109.936 93.3094 112.501C92.9611 115.068 107.094 118.407 124.739 134.337C124.739 134.337 123.177 122.21 141.239 117.12C141.239 117.12 122.795 107.036 121.585 106.359C120.375 105.68 116.399 100.714 110.649 100.212C104.895 99.708 101.422 102.58 98.8707 103.515Z" fill="#3C4999"/>
<path d="M96.3936 105.847L90.9101 101.91L91.3518 97.9175L97.2362 97.6166L103.681 103.052L108.448 105.866C108.448 105.866 100.431 108.849 96.3936 105.847Z" fill="#E09C65"/>
<path d="M94.1422 88.0735C94.1422 88.0735 97.3529 90.9511 98.9155 92.7792C100.48 94.6167 105.115 100.724 102.471 102.401C102.471 102.401 96.3936 105.847 93.792 103.509L90.4275 103.549C90.4275 103.549 81.9395 101.309 81.5017 96.5596C80.6883 87.6842 87.9543 85.0943 94.1422 88.0735Z" fill="#F8BC82"/>
<path d="M91.7021 102.712C91.7021 102.712 86.0551 103.594 87.0825 100.665C87.0825 100.665 87.5534 99.614 89.5441 100.344L90.626 100.539L90.9101 99.9732C90.9101 99.9732 87.0923 97.7859 86.6836 96.4129C86.2711 95.0324 95.7028 89.3054 93.755 86.5839C91.3557 83.2324 87.1506 84.0505 82.6225 88.2428C80.6533 90.069 76.8004 98.8147 85.8372 102.712C86.8743 103.159 94.0683 104.179 94.0683 104.179L93.792 103.509L91.7021 102.712Z" fill="#35322F"/>
<path d="M129.312 110.037C129.312 110.037 128.509 111.534 127.477 112.242L125.761 113.06C125.699 113.144 122.494 115.646 122.838 116.014C122.838 116.014 123.875 116.629 125.146 115.629C124.292 117.241 123.547 117.844 123.478 120.18C123.405 122.83 126.5 122.278 126.5 122.278C126.5 122.278 127.785 121.341 128.678 120.113C130.196 118.029 130.058 116.383 130.602 114.361C130.639 114.222 131.262 113.035 131.262 113.035L129.312 110.037Z" fill="#D5874A"/>
<path d="M130.848 114.692C130.848 114.692 130.468 113.726 129.122 113.41C127.775 113.094 127.036 113.916 127.036 113.916L127.524 109.575C127.524 109.575 130.756 102.898 133.494 110.227C133.494 110.227 133.62 112.738 130.848 114.692Z" fill="#32378C"/>
<path d="M120.49 119.174C120.49 119.174 121.474 118.004 121.85 116.838L122.346 114.963C122.41 114.88 123.866 111.147 124.333 111.35C124.333 111.35 125.259 112.117 124.675 113.596C125.989 112.309 126.351 111.433 128.618 110.645C131.192 109.753 131.614 112.778 131.614 112.778C131.614 112.778 131.095 114.252 130.168 115.456C128.596 117.502 127.721 118.392 125.907 119.522C125.782 119.601 124.152 120.574 124.152 120.574L120.49 119.174Z" fill="#F8BC82"/>
<path d="M121.155 117.246L112.163 125.242L103.874 115.114C101.486 113.624 94.6014 111.218 93.504 112.879L93.3327 113.137C92.8676 115.07 96.7964 119.661 97.4249 119.716L108.703 130.613C110.998 132.648 111.735 133.197 114.553 132.024C114.553 132.026 114.553 132.026 114.555 132.026L114.564 132.02C114.59 132.011 114.611 132.001 114.638 131.99L114.648 131.977L124.675 121.07C125.886 120.019 122.371 116.195 121.155 117.246Z" fill="#32378C"/>
<path d="M109.11 115.915C109.11 115.915 101.519 110.003 96.9151 109.104C96.9151 109.104 104.796 102.373 109.11 101.416C109.11 101.416 114.56 102.548 120.49 107.186C120.49 107.186 112.356 111.155 109.11 115.915Z" fill="#5FBDAC"/>
<path d="M96.6252 173.256C95.5627 172.188 94.7824 170.77 94.1636 169.228C92.9338 166.147 92.3481 162.526 91.8305 160.166C91.1592 157.07 90.9704 149.692 90.9665 141.525C90.9665 127.752 91.5464 111.899 91.5464 111.894L92.8443 111.939C92.8443 111.948 92.7003 115.898 92.5563 121.578C92.4104 127.258 92.2644 134.655 92.2664 141.525C92.2625 149.645 92.4785 157.087 93.1012 159.906C93.8679 163.508 94.868 169.741 97.5612 172.382C98.4485 173.262 99.4448 173.757 100.745 173.762C102.471 173.77 104.85 172.805 107.966 170.183C111.079 167.567 114.909 163.329 119.583 156.952L120.643 157.678C115.93 164.108 112.054 168.409 108.818 171.131C105.584 173.843 102.975 175.011 100.745 175.019C100.737 175.019 100.729 175.019 100.723 175.019C99.0614 175.019 97.6779 174.317 96.6252 173.256Z" fill="#1D1D1B"/>
<path d="M65.633 157.918C65.633 157.918 65.2632 163.074 65.633 164.701C65.633 164.701 68.8904 165.876 71.8403 165.148V163.634C71.8403 163.634 76.8646 165.789 82.533 165.385C82.533 165.385 85.6523 165.09 86.1738 162.961C86.6953 160.832 83.7453 160.721 81.202 160.158C78.6607 159.6 75.4792 157.918 75.016 156.628L65.633 157.918Z" fill="#181613"/>
<path d="M75.0336 157.096C75.0336 159.987 65.4695 159.987 65.4695 157.096V129.007C65.4695 126.116 73.5197 120.978 75.0336 129.007V157.096Z" fill="#1D1A18"/>
<path d="M75.5142 165.095C75.5142 165.095 75.1445 170.249 75.5142 171.872C75.5142 171.872 78.7716 173.051 81.7216 172.32V170.809C81.7216 170.809 86.7478 172.967 92.4143 172.56C92.4143 172.56 95.5335 172.267 96.055 170.138C96.5746 168.009 93.6285 167.896 91.0852 167.336C88.5419 166.775 85.3604 165.095 84.8973 163.803L75.5142 165.095Z" fill="#292623"/>
<path d="M58.223 174.938C58.223 176.318 57.0652 177.437 55.6428 177.437C54.2203 177.437 53.0683 176.318 53.0683 174.938V164.366C53.0683 162.985 54.2203 161.866 55.6428 161.866C57.0652 161.866 58.223 162.985 58.223 164.366V174.938Z" fill="#517E84"/>
<path d="M44.0277 168.156C43.0937 167.635 42.329 168.06 42.329 169.105C42.329 170.151 43.0937 171.434 44.0277 171.955C44.9618 172.478 45.7265 172.049 45.7265 171.005C45.7265 169.959 44.9618 168.677 44.0277 168.156Z" fill="#22201D"/>
<path d="M44.4656 167.146L42.4944 169.658H43.6347L45.5436 167.146H44.4656Z" fill="#22201D"/>
<path d="M53.152 169.371L45.2537 166.105L44.0122 167.738L53.152 173.95V169.371Z" fill="#40696C"/>
<path d="M43.3233 168.581C42.3893 168.056 41.6246 168.485 41.6246 169.53C41.6246 170.576 42.3873 171.857 43.3233 172.38C44.2535 172.903 45.0182 172.476 45.0182 171.428C45.0182 170.384 44.2535 169.103 43.3233 168.581Z" fill="#3B3735"/>
<path d="M67.3317 168.156C68.2638 167.635 69.0266 168.06 69.0266 169.105C69.0266 170.151 68.2658 171.434 67.3317 171.955C66.3977 172.478 65.6369 172.049 65.6369 171.005C65.6369 169.959 66.3996 168.677 67.3317 168.156Z" fill="#22201D"/>
<path d="M66.892 167.146L68.869 169.658H67.7248L65.8139 167.146H66.892Z" fill="#22201D"/>
<path d="M58.2055 169.371L66.1058 166.105L67.3492 167.738L58.2055 173.95V169.371Z" fill="#40696C"/>
<path d="M68.04 168.581C68.9721 168.056 69.733 168.485 69.733 169.53C69.733 170.576 68.9721 171.857 68.04 172.38C67.1021 172.903 66.3413 172.476 66.3413 171.428C66.3413 170.384 67.1021 169.103 68.04 168.581Z" fill="#3B3735"/>
<path d="M56.4406 188.711H55.0532V170.48H56.4406V188.711Z" fill="#7FA2A6"/>
<path d="M57.1975 192.775H54.2943V188.459H57.1975V192.775Z" fill="#22201D"/>
<path d="M57.4447 193.356C57.4447 193.892 57.5809 194.327 57.1975 194.327C56.8142 194.327 56.5028 193.892 56.5028 193.356V188.686C56.5028 188.148 56.8142 187.712 57.1975 187.712C57.5809 187.712 57.4447 188.148 57.4447 188.686V193.356Z" fill="#3B3735"/>
<path d="M54.9909 193.356C54.9909 193.892 54.6776 194.327 54.2942 194.327C53.9129 194.327 53.9596 193.892 53.9596 193.356V188.686C53.9596 188.148 53.9129 187.712 54.2942 187.712C54.6776 187.712 54.9909 188.148 54.9909 188.686V193.356Z" fill="#3B3735"/>
<path d="M37.184 182.615C37.184 184.005 36.0204 185.132 34.5863 185.132C33.1541 185.132 31.9904 184.005 31.9904 182.615C31.9904 181.223 33.1541 180.097 34.5863 180.097C36.0204 180.097 37.184 181.223 37.184 182.615Z" fill="#22201D"/>
<path d="M34.9871 178.112L33.8429 180.821H34.9871L36.0632 178.112H34.9871Z" fill="#22201D"/>
<path d="M53.152 170.48L35.3705 177.23L34.3469 179.594L53.152 175.178V170.48Z" fill="#7FA2A6"/>
<path d="M37.8223 182.912C37.8223 184.304 36.6606 185.434 35.2265 185.434C33.7924 185.434 32.6287 184.304 32.6287 182.912C32.6287 181.524 33.7924 180.398 35.2265 180.398C36.6606 180.398 37.8223 181.524 37.8223 182.912Z" fill="#3B3735"/>
<path d="M73.9594 182.416C73.9594 183.727 75.0511 184.787 76.4015 184.787C77.752 184.787 78.8475 183.727 78.8475 182.416C78.8475 181.109 77.752 180.05 76.4015 180.05C75.0511 180.05 73.9594 181.109 73.9594 182.416Z" fill="#22201D"/>
<path d="M76.2614 178.24L77.4037 180.951H76.2614L75.1853 178.24H76.2614Z" fill="#22201D"/>
<path d="M73.4243 182.581C73.4243 183.89 74.5159 184.951 75.8683 184.951C77.2188 184.951 78.3124 183.89 78.3124 182.581C78.3124 181.272 77.2188 180.211 75.8683 180.211C74.5159 180.211 73.4243 181.272 73.4243 182.581Z" fill="#3B3735"/>
<path d="M58.2055 170.48L75.845 177.279L76.8705 179.643L58.2055 175.178V170.48Z" fill="#7FA2A6"/>
<path d="M57.0107 162.526C57.0107 163.192 56.3997 163.734 55.6428 163.734C54.8897 163.734 54.2767 163.192 54.2767 162.526V153.452C54.2767 152.784 54.8897 152.244 55.6428 152.244C56.3997 152.244 57.0107 152.784 57.0107 153.452V162.526Z" fill="#7FA2A6"/>
<path d="M34.3469 154.712C34.3469 154.712 33.4868 157.424 37.184 159.506C40.8812 161.59 44.0686 159.589 46.1526 157.988L51.1886 153.954L43.3233 148.956L34.3469 154.712Z" fill="#517E84"/>
<path d="M34.2555 151.328C32.798 150.514 32.0274 149.453 31.9418 148.381C31.8464 147.175 31.934 147.309 31.9398 145.311L47.4914 137.625C50.5854 135.893 55.6466 135.893 58.7406 137.625L74.2941 145.187C74.2941 147.546 74.2922 147.034 74.2941 148.172C74.2961 149.316 73.5235 150.461 71.9727 151.328L58.7406 158.737C55.6466 160.469 50.5854 160.469 47.4914 158.737L34.2555 151.328Z" fill="#0C7CA8"/>
<path d="M34.2555 148.607C31.1615 146.876 31.1615 144.046 34.2555 142.312L47.4914 134.905C50.5854 133.175 55.6467 133.175 58.7406 134.903L71.9727 142.312C75.0667 144.046 75.0667 146.876 71.9727 148.607L58.7406 156.019C55.6467 157.749 50.5854 157.749 47.4914 156.019L34.2555 148.607Z" fill="#4CBED3"/>
<path d="M76.6545 111.354L78.2793 110.916C78.2793 110.916 81.1923 111.279 82.8755 110.782C82.8755 110.782 86.4151 110.837 84.0761 109.688C84.0761 109.688 83.792 109.575 82.4727 109.385C82.4727 109.385 86.022 108.063 87.8103 108.745C89.5947 109.428 89.9625 108.559 88.7852 107.384C87.606 106.202 85.4869 104.553 81.7741 105.446C78.0633 106.342 78.1645 107.026 77.1779 107.779L75.736 108.17L76.6545 111.354Z" fill="#F8BC82"/>
<path d="M49.5871 97.0543C49.5871 97.0543 50.2196 92.4614 48.8925 88.3725C47.5615 84.2799 49.3556 76.77 56.5223 76.4352C63.689 76.0985 66.8686 80.635 66.925 82.5985C66.9834 84.5583 65.4228 89.4935 65.0181 91.899C64.6133 94.3121 62.7063 102.715 57.7054 99.0159L56.2907 101.198L49.5871 97.0543Z" fill="#F8BC82"/>
<path d="M54.5161 96.1778L49.7331 94.4588C49.7331 94.4588 47.4272 87.735 46.1157 85.7902C46.1157 85.7902 46.0417 74.735 56.3666 74.3607C66.6954 73.9902 72.2938 82.6813 66.6818 84.6862C66.6818 84.6862 63.2278 88.412 62.8406 89.9016C62.8406 89.9016 62.9963 84.0524 59.9899 88.8089C56.9835 93.5616 54.5161 96.1778 54.5161 96.1778Z" fill="#3B3732"/>
<path d="M72.7355 108.392L76.6175 107.34C76.6175 107.34 78.5147 108.11 78.2949 111.252L74.156 112.766C74.156 112.766 75.6485 110.086 72.7355 108.392Z" fill="#E5F3F2"/>
<path d="M73.3718 107.963L63.8272 109.983L51.5797 99.2736C50.1047 97.9815 47.7171 97.989 46.2441 99.2792C44.773 100.575 44.0413 104.316 45.5183 105.602L59.0014 115.104C59.5832 115.614 60.3109 115.919 61.0659 116.026C61.7567 116.814 62.72 117.288 63.868 116.976L74.8059 112.71C76.7031 112.195 75.2729 107.447 73.3718 107.963Z" fill="#D8D6D6"/>
<path d="M71.9824 134.61L47.5887 146.786C44.8645 148.144 41.5195 147.111 40.1165 144.467C38.7116 141.828 39.7837 138.584 42.5099 137.224L66.8997 125.046C77.5282 121.83 74.7066 133.25 71.9824 134.61Z" fill="#1D1A18"/>
<path d="M48.083 97.7859C48.083 97.7859 48.9489 96.4938 49.5268 95.7678C49.5268 95.7678 59.5482 98.8918 59.3069 106.629L48.083 97.7859Z" fill="#E5F3F2"/>
<path d="M85.1736 135.96C85.195 135.044 84.9771 134.111 84.4867 133.25C83 130.649 78.7833 129.037 76.0999 130.476L54.4636 141.986L39.2 135.859C39.2 135.859 36.0204 144.147 43.0334 148.928C45.8316 150.833 47.6743 152.291 49.2739 153.209C51.0505 154.783 55.1232 155.043 57.4408 153.796L75.0336 144.441V164.178C75.0336 167.065 85.1814 167.065 85.1814 164.178V136.086C85.1814 136.043 85.1755 136.003 85.1736 135.96Z" fill="#2E2B2A"/>
<path d="M48.083 97.7859C48.083 97.7859 38.6026 102.828 39.6417 115.603C40.6847 128.377 35.53 143.154 35.53 143.154C35.53 143.154 44.6057 154.815 53.5801 155.06C53.5801 155.06 60.6923 155.725 67.538 151.71L62.07 117.957C62.07 117.957 63.689 103.613 48.083 97.7859Z" fill="#F7F8F8"/>
<path d="M31.1673 117.532C30.9825 114.961 30.0932 111.736 30.0932 111.736C28.4373 106.217 36.6022 106.357 44.3702 111.297C49.8401 114.775 53.765 116.443 54.3546 124.384L56.0222 133.654C57.0302 138.087 49.3673 137.514 43.2825 133.656C36.252 129.201 31.9574 128.471 31.1673 117.532Z" fill="#4CBED3"/>
<path d="M29.8383 118.226C29.6554 115.655 28.7642 112.428 28.7642 112.428C27.1121 106.911 35.2751 107.051 43.0412 111.99C48.5111 115.471 52.4379 117.135 53.0275 125.076L54.6951 134.348C55.7011 138.781 48.0421 138.206 41.9534 134.348C34.9229 129.891 30.6264 129.165 29.8383 118.226Z" fill="#0C7CA8"/>
<path d="M34.3469 154.712C34.3469 154.712 37.1081 142.598 38.2329 138.114C39.3556 133.626 38.0967 120.32 37.4915 116.801L41.6654 119.217C41.6654 119.217 42.6189 133.739 42.508 135.127C42.508 135.127 42.9322 147.708 43.3233 156.402C43.3233 156.402 42.0274 157.318 40.5563 158.334L34.3469 154.712Z" fill="#7FA2A6"/>
<path d="M42.724 134.811L41.8834 119.024L37.3961 116.338L38.3029 133.133L41.4767 135.078L42.724 134.811Z" fill="#076887"/>
<path d="M88.1839 110.037L89.4643 109.031C89.4643 109.031 89.509 107.205 89.7756 106.225C90.0403 105.247 91.4724 102.761 91.669 104.179L91.5055 105.885C91.5055 105.885 92.3656 106.913 92.6789 105.469C92.9941 104.023 92.6789 102.712 92.6789 102.712C92.6789 102.712 93.792 101.863 94.6987 103.573C95.6075 105.283 94.8213 109.167 94.8213 109.167C94.8213 109.167 93.0058 111.732 91.8655 111.916C90.7252 112.102 89.7756 112.766 89.7756 112.766L88.1839 110.037Z" fill="#F5C397"/>
<path d="M91.8208 102.401L91.4763 112.025C91.4763 112.025 92.0913 112.994 92.712 111.916V102.401L93.4573 101.109C93.4573 101.109 92.8093 100.193 92.2236 100.793C91.6359 101.393 91.8208 102.401 91.8208 102.401Z" fill="#C6C3C2"/>
<path d="M85.1833 110.983L88.4388 108.678C88.4388 108.678 91.272 109.686 91.6593 113.131L88.8027 115.157C88.8027 115.157 88.5225 111.58 85.1833 110.983Z" fill="#E5F3F2"/>
<path d="M85.1833 110.6L76.7693 115.815L59.9646 107.16C57.8222 106.056 55.1602 106.844 54.0218 108.92C52.146 112.563 53.3622 116.806 55.5027 117.907L74.3525 124.217C74.7806 124.437 75.2301 124.58 75.6835 124.655C76.8102 124.894 78.0322 124.685 79.0363 123.974L89.3067 115.335C91.1592 114.021 87.0358 109.285 85.1833 110.6Z" fill="#E6E4E5"/>
<path d="M59.8984 99.9375C59.8984 99.9375 61.0309 96.0349 60.4666 95.2769L63.5937 90.6445C63.5937 90.6445 64.6444 91.8069 64.9033 92.531C64.9033 92.531 64.1969 99.9638 59.8984 99.9375Z" fill="#F7F8F8"/>
<path d="M60.4666 95.2769C60.4238 95.0794 59.3069 90.4264 60.1066 88.6716L60.5659 87.9719C59.5657 90.0615 60.7916 94.7334 60.8013 94.7823L60.4666 95.2769Z" fill="#E5F3F2"/>
<path d="M63.296 91.0846L62.8387 89.5085L62.7608 88.491L63.5937 90.6445L63.296 91.0846Z" fill="#E5F3F2"/>
<path d="M107.256 199.476C106.862 199.102 106.536 198.613 106.232 198.019C105.625 196.83 105.109 195.213 104.64 193.283C103.71 189.427 102.998 184.336 102.455 179.247C101.373 169.071 100.98 158.915 100.978 158.906H100.98L102.276 158.859C102.278 158.87 102.471 163.865 102.963 170.364C103.451 176.856 104.239 184.844 105.417 190.753C106.174 194.678 107.221 197.738 108.164 198.579C108.406 198.805 108.569 198.854 108.694 198.856C108.886 198.876 109.39 198.639 110.011 197.703C110.628 196.787 111.33 195.288 112.079 193.146C113.584 188.857 115.298 181.987 117.226 171.812L118.505 172.037C115.588 187.362 113.216 195.209 111.103 198.387C110.392 199.431 109.653 200.091 108.694 200.112C108.133 200.114 107.639 199.845 107.256 199.476Z" fill="#1D1D1B"/>
<path d="M110.499 152.667C110.499 152.667 110.499 152.667 110.499 152.669V152.667ZM116.775 193.24C116.386 192.865 116.059 192.376 115.751 191.78C115.146 190.593 114.629 188.976 114.162 187.044C113.229 183.191 112.519 178.099 111.976 173.01C110.898 162.884 110.503 152.776 110.499 152.669L111.799 152.622C111.799 152.633 111.992 157.629 112.484 164.125C112.973 170.621 113.761 178.607 114.938 184.516C115.693 188.442 116.742 191.502 117.686 192.342C117.927 192.568 118.088 192.617 118.215 192.617C118.407 192.64 118.911 192.401 119.534 191.464C120.149 190.55 120.852 189.051 121.601 186.909C123.105 182.619 124.819 175.748 126.748 165.573L128.026 165.799C125.109 181.125 122.735 188.972 120.622 192.151C119.912 193.194 119.176 193.853 118.215 193.877C117.654 193.877 117.16 193.608 116.775 193.24Z" fill="#1D1D1B"/>
<path d="M126.296 187.003C125.905 186.629 125.58 186.14 125.275 185.543C124.667 184.357 124.15 182.739 123.683 180.809C122.751 176.956 122.039 171.864 121.498 166.773C120.414 156.598 120.021 146.442 120.021 146.432L121.319 146.385C121.319 146.397 121.513 151.394 122.003 157.89C122.492 164.385 123.282 172.37 124.457 178.282C125.214 182.205 126.263 185.265 127.207 186.106C127.448 186.331 127.61 186.38 127.736 186.382C127.929 186.403 128.431 186.164 129.053 185.227C129.672 184.311 130.373 182.814 131.124 180.672C132.626 176.382 134.34 169.512 136.269 159.335L137.547 159.562C134.63 174.889 132.258 182.735 130.145 185.914C129.433 186.958 128.697 187.616 127.736 187.639C127.176 187.639 126.681 187.372 126.296 187.003Z" fill="#1D1D1B"/>
<path d="M135.817 180.766C135.426 180.392 135.099 179.901 134.794 179.309C134.189 178.12 133.671 176.502 133.204 174.573C132.272 170.717 131.56 165.628 131.019 160.538C129.937 150.36 129.542 140.203 129.542 140.196L130.84 140.149C130.842 140.16 131.034 145.155 131.525 151.652C132.015 158.148 132.803 166.134 133.979 172.043C134.735 175.968 135.784 179.028 136.728 179.867C136.969 180.093 137.131 180.144 137.257 180.146C137.45 180.168 137.952 179.927 138.575 178.991C139.192 178.077 139.894 176.58 140.643 174.435C142.145 170.147 143.862 163.275 145.79 153.1L147.069 153.327C144.152 168.652 141.778 176.499 139.664 179.675C138.954 180.723 138.217 181.379 137.257 181.402C136.695 181.402 136.201 181.135 135.817 180.766Z" fill="#1D1D1B"/>
<path d="M97.6896 141.674L100.624 153.634C100.624 153.634 102.321 154.676 102.883 153.043L98.2772 140.747L96.0064 138.938L94.8894 140.747L97.6896 141.674Z" fill="#827E7D"/>
<path d="M106.213 137.241L109.145 149.205C109.145 149.205 110.844 150.243 111.404 148.612L106.8 136.316L104.529 134.504L103.411 136.316L106.213 137.241Z" fill="#827E7D"/>
<path d="M114.736 132.81L117.668 144.772C117.668 144.772 119.365 145.81 119.927 144.181L115.321 131.883L113.05 130.071L111.932 131.883L114.736 132.81Z" fill="#827E7D"/>
<path d="M123.257 128.379L126.187 140.339C126.187 140.339 127.886 141.377 128.448 139.748L123.842 127.452L121.573 125.638L120.455 127.452L123.257 128.379Z" fill="#827E7D"/>
<path d="M119.27 167.477L154.319 148.001L132.033 135.526L96.9813 155.003L119.27 167.477Z" fill="#E4EEF1"/>
<path d="M121.153 162.76L145.852 149.035L130.147 140.243L105.446 153.969L121.153 162.76Z" fill="#FCFCFD"/>
<path d="M114.027 156.878L119.927 153.602L116.176 151.501L110.278 154.777L114.027 156.878Z" fill="#ADC5CD"/>
<path d="M109.056 154.191L110.243 153.529L109.486 153.107L108.301 153.767L109.056 154.191Z" fill="#ADC5CD"/>
<path d="M111.433 152.942L112.62 152.284L111.865 151.859L110.678 152.521L111.433 152.942Z" fill="#ADC5CD"/>
<path d="M113.811 151.697L114.998 151.033L114.243 150.612L113.054 151.272L113.811 151.697Z" fill="#ADC5CD"/>
<path d="M116.96 149.792L118.149 149.129L117.394 148.708L116.205 149.366L116.96 149.792Z" fill="#ADC5CD"/>
<path d="M119.34 148.541L120.527 147.883L119.772 147.457L118.585 148.12L119.34 148.541Z" fill="#ADC5CD"/>
<path d="M121.717 147.296L122.906 146.634L122.151 146.212L120.962 146.871L121.717 147.296Z" fill="#ADC5CD"/>
<path d="M124.868 145.39L126.057 144.728L125.302 144.307L124.111 144.967L124.868 145.39Z" fill="#ADC5CD"/>
<path d="M127.246 144.142L128.435 143.481L127.678 143.058L126.491 143.72L127.246 144.142Z" fill="#ADC5CD"/>
<path d="M129.626 142.895L130.813 142.235L130.058 141.811L128.871 142.471L129.626 142.895Z" fill="#ADC5CD"/>
<path d="M121.616 152.645L127.516 149.366L123.766 147.268L117.867 150.548L121.616 152.645Z" fill="#ADC5CD"/>
<path d="M129.207 148.413L135.105 145.135L131.355 143.034L125.455 146.314L129.207 148.413Z" fill="#ADC5CD"/>
<path d="M96.9813 155.003V163.318L119.268 175.792L119.27 167.477L96.9813 155.003Z" fill="#ADC5CD"/>
<path d="M119.268 175.792L154.319 156.316V148.001L119.269 167.477L119.268 175.792Z" fill="#D2DDE0"/>
<path d="M239.701 116.206L239.687 116.214L239.695 116.203L202.606 95.401V95.3841C202.606 95.3841 199.709 93.8043 196.936 95.9728C195.081 97.4266 195.175 100.776 195.175 100.776V115.383C195.175 115.383 195.175 117.461 198.891 117.461C202.604 117.461 202.606 115.383 202.606 115.383V103.72L232.347 120.402L154.644 164.732L144.42 159.051C144.42 159.051 141.842 156.523 138.843 158.481C135.845 160.441 137.018 163.207 137.018 163.207L150.976 170.994C150.976 170.994 154.319 173.234 158.302 170.999C161.643 169.128 219.21 136.263 237.71 125.699C241.273 123.666 241.835 122.454 241.9 121.115C242.088 117.246 239.701 116.206 239.701 116.206Z" fill="#A6B2B3"/>
</svg>
